<svg xmlns="http://www.w3.org/2000/svg" width="32" height="32" viewBox="0 0 32 32">
    <defs>
        <clipPath id="roundClip">
            <circle cx="16" cy="16" r="16" />
        </clipPath>
    </defs>

    <!-- Round black background -->
    <circle cx="16" cy="16" r="16" fill="black" />

    <g clip-path="url(#roundClip)">
        <g transform="translate(2, 0)">
            <!-- Bookmark (white filled) -->
            <path
                d="M19 6a2 2 0 0 1 2 2v17a1 1 0 0 1-1.496.868l-4.512-2.578a2 2 0 0 0-1.984 0l-4.512 2.578A1 1 0 0 1 7 25V8a2 2 0 0 1 2-2z"
                fill="white" stroke="none" />

            <!-- Share icon: black outline (thicker stroke behind) -->
            <g transform="translate(13.5, 10.5) scale(0.46)" stroke="black" stroke-width="6"
                fill="black" stroke-linecap="round" stroke-linejoin="round">
                <circle cx="18" cy="5" r="2" />
                <circle cx="6" cy="12" r="2" />
                <circle cx="18" cy="19" r="2" />
                <line x1="8.59" x2="15.42" y1="13.51" y2="17.49" />
                <line x1="15.41" x2="8.59" y1="6.51" y2="10.49" />
            </g>

            <!-- Share icon: white foreground -->
            <g transform="translate(13.5, 10.5) scale(0.46)" stroke="white" stroke-width="2"
                fill="white" stroke-linecap="round" stroke-linejoin="round">
                <circle cx="18" cy="5" r="2" />
                <circle cx="6" cy="12" r="2" />
                <circle cx="18" cy="19" r="2" />
                <line x1="8.59" x2="15.42" y1="13.51" y2="17.49" />
                <line x1="15.41" x2="8.59" y1="6.51" y2="10.49" />
            </g>
        </g>
    </g>
</svg>